<?xml version="1.0" encoding="utf-8"?>

<!-- Uploaded to: SVG Repo, www.svgrepo.com, Generator: SVG Repo Mixer Tools -->
<svg version="1.1" id="_x32_" xmlns="http://www.w3.org/2000/svg" xmlns:xlink="http://www.w3.org/1999/xlink" 
	 width="800px" height="800px" viewBox="0 0 512 512"  xml:space="preserve">
<style type="text/css">
<![CDATA[
	.st0{fill:"#535353";}
]]>
</style>
<g>
	<path fill="#535353"  class="st0" d="M412.969,165.211c-18.688-27.797-35.313-60.797-56.906-87.609c-10.828-13.391-23-25.297-37.594-33.922
		c-14.563-8.641-31.578-13.828-51.063-13.797c-2.922,0-5.875,0.109-8.891,0.344c-31.922,2.359-56.078,17.438-71.656,36.547
		c-7.766,9.516-13.531,19.953-17.375,30.484h-48.828v21.734v21C50.609,163.039,0,228.867,0,306.633
		c0,96.922,78.563,175.484,175.5,175.484c96.906,0,175.469-78.563,175.469-175.484c0-77.766-50.625-143.594-120.656-166.641v-21
		V97.258h-40.688c2.969-6.469,6.844-12.844,11.656-18.672c12.875-15.625,31.844-27.703,58.656-29.781
		c2.547-0.188,5.047-0.297,7.469-0.297c21.625,0.078,38.188,7.266,53.156,19.297c22.375,18.031,40.047,47.75,58.203,77.938
		c18.25,30.094,37,60.781,64.625,80.031L454,210.445C438.609,199.836,425.375,183.742,412.969,165.211z M273.328,306.633
		c0,54.047-43.797,97.844-97.828,97.844c-54.063,0-97.844-43.797-97.844-97.844s43.781-97.844,97.844-97.844
		C229.531,208.789,273.328,252.586,273.328,306.633z"/>
	<polygon fill="#535353" class="st0" points="511.781,209.32 511.234,209.102 475.531,210.055 474.797,210.758 474.641,214.883 475.313,215.648
		510.875,219.258 511.438,219.086 511.688,218.555 512,209.867 	"/>
	<polygon fill="#535353" class="st0" points="402.313,212.18 402.469,208.055 401.797,207.289 366.25,203.68 365.672,203.852 365.422,204.398
		365.109,213.086 365.313,213.633 365.875,213.836 401.594,212.898 	"/>
	<polygon fill="#535353" class="st0" points="467.484,188.445 495.188,165.852 495.469,165.32 495.25,164.758 489.344,158.398 488.813,158.164
		488.266,158.398 463.688,184.32 463.688,185.352 466.469,188.352 	"/>
	<polygon fill="#535353" class="st0" points="409.609,234.508 381.906,257.086 381.641,257.617 381.844,258.195 387.734,264.539 388.281,264.789
		388.828,264.555 413.406,238.602 413.406,237.602 410.609,234.586 	"/>
	<polygon fill="#535353" class="st0" points="437.844,175.242 441.969,175.398 442.719,174.711 446.328,139.18 446.156,138.602 445.625,138.352
		436.938,138.023 436.406,138.242 436.172,138.805 437.125,174.508 	"/>
	<polygon fill="#535353" class="st0" points="439.234,247.727 435.125,247.555 434.375,248.242 430.766,283.789 430.938,284.352 431.469,284.602
		440.156,284.93 440.703,284.711 440.938,284.148 439.969,248.445 	"/>
	<polygon fill="#535353" class="st0" points="465.688,236.617 464.688,236.617 461.656,239.414 461.594,240.414 484.172,268.102 484.688,268.383
		485.25,268.195 491.625,262.289 491.844,261.742 491.625,261.195 	"/>
	<path fill="#535353" class="st0" d="M166.172,245.68v62.109c0,5.141,4.172,9.313,9.313,9.313h62.109c5.156,0,9.328-4.172,9.328-9.313
		s-4.172-9.313-9.328-9.313h-52.781V245.68c0-5.141-4.188-9.328-9.328-9.328S166.172,240.539,166.172,245.68z"/>
</g>
</svg>