<?xml version="1.0" encoding="utf-8"?><!-- Uploaded to: SVG Repo, www.svgrepo.com, Generator: SVG Repo Mixer Tools -->
<svg version="1.1" id="Uploaded to svgrepo.com" xmlns="http://www.w3.org/2000/svg" xmlns:xlink="http://www.w3.org/1999/xlink" 
	 width="800px" height="800px" viewBox="0 0 32 32" xml:space="preserve" fill="#535353">
<style type="text/css">
	.linesandangles_een{fill:"#535353";}
</style>
<path fill="#535353" class="linesandangles_een" d="M24,4H8C4.822,4,3,5.822,3,9c0,2.721,2.399,5.817,4.553,6.895l0.784,0.392
	c0.894,2.99,3.492,5.246,6.663,5.644V24c0,1.105-0.895,2-2,2h-2v2h10v-2h-2c-1.105,0-2-0.895-2-2v-2.069
	c3.171-0.398,5.769-2.654,6.663-5.644l0.784-0.392C26.601,14.817,29,11.721,29,9C29,5.822,27.178,4,24,4z M5,9c0-2.075,0.925-3,3-3
	v7.83C6.427,12.79,5,10.56,5,9z M22,14c0,3.309-2.691,6-6,6s-6-2.691-6-6V6h12V14z M24,13.83V6c2.075,0,3,0.925,3,3
	C27,10.56,25.573,12.79,24,13.83z M11,14h2c0,1.654,1.346,3,3,3v2C13.243,19,11,16.757,11,14z"/>
</svg>